<svg xmlns="http://www.w3.org/2000/svg" viewBox="0 0 1120 380" width="1120" height="380">
  
  
  <rect x="0" y="0" width="1120" height="380" fill="#0F3D44"></rect>
  <g transform="translate(70,64)">
    <defs>
      <clipPath id="b-clip"><text x="34" y="222" font-family="&#39;Space Grotesk&#39;,sans-serif" font-weight="700" font-size="208" letter-spacing="-6" fill="#FBFAF6" stroke="#FBFAF6" stroke-width="5" paint-order="stroke">SENSER</text></clipPath>
      <linearGradient id="b-fade" x1="0" y1="0" x2="1" y2="0">
        <stop offset="0.30" stop-color="#fff" stop-opacity="0"></stop>
        <stop offset="0.60" stop-color="#fff" stop-opacity="1"></stop>
      </linearGradient>
      <mask id="b-mask"><rect x="0" y="0" width="1000" height="300" fill="url(#b-fade)"></rect></mask>
    </defs>
    <text x="34" y="222" font-family="&#39;Space Grotesk&#39;,sans-serif" font-weight="700" font-size="208" letter-spacing="-6" fill="#FBFAF6" stroke="#FBFAF6" stroke-width="5" paint-order="stroke">SENSER</text>
    <g clip-path="url(#b-clip)"><g mask="url(#b-mask)"><rect x="280" y="66.5" width="860" height="13" fill="#0F3D44"></rect><rect x="280" y="93.5" width="860" height="13" fill="#0F3D44"></rect><rect x="280" y="120.5" width="860" height="13" fill="#0F3D44"></rect><rect x="280" y="147.5" width="860" height="13" fill="#0F3D44"></rect><rect x="280" y="174.5" width="860" height="13" fill="#0F3D44"></rect><rect x="280" y="201.5" width="860" height="13" fill="#0F3D44"></rect></g></g>
    <g fill="none" stroke="#D98A2B" stroke-width="5" stroke-linecap="round" stroke-linejoin="round"><path d="M 730 100 H 868 L 884 73 H 936"></path><path d="M 730 127 H 904"></path><path d="M 730 154 H 892 L 908 181 H 960"></path><path d="M 730 181 H 916"></path><path d="M 730 208 H 880"></path></g>
    <circle cx="936" cy="73" r="9" fill="#D98A2B" stroke="#0F3D44" stroke-width="3"></circle><circle cx="904" cy="127" r="9" fill="#D98A2B" stroke="#0F3D44" stroke-width="3"></circle><circle cx="960" cy="181" r="9" fill="#D98A2B" stroke="#0F3D44" stroke-width="3"></circle><circle cx="916" cy="181" r="9" fill="#D98A2B" stroke="#0F3D44" stroke-width="3"></circle><circle cx="880" cy="208" r="9" fill="#D98A2B" stroke="#0F3D44" stroke-width="3"></circle></g>
</svg>